<?xml version="1.0" encoding="UTF-8" standalone="no"?>
<svg
   viewBox="0 0 70 60"
   version="1.1"
   id="svg1"
   sodipodi:docname="car.svg"
   inkscape:version="1.3.2 (091e20e, 2023-11-25, custom)"
   width="70"
   height="60"
   xmlns:inkscape="http://www.inkscape.org/namespaces/inkscape"
   xmlns:sodipodi="http://sodipodi.sourceforge.net/DTD/sodipodi-0.dtd"
   xmlns="http://www.w3.org/2000/svg"
   xmlns:svg="http://www.w3.org/2000/svg">
  <defs
     id="defs1" />
  <sodipodi:namedview
     id="namedview1"
     pagecolor="#ffffff"
     bordercolor="#000000"
     borderopacity="0.25"
     inkscape:showpageshadow="2"
     inkscape:pageopacity="0.0"
     inkscape:pagecheckerboard="0"
     inkscape:deskcolor="#d1d1d1"
     showgrid="false"
     inkscape:zoom="5.8071429"
     inkscape:cx="83.001229"
     inkscape:cy="69.999999"
     inkscape:window-width="1920"
     inkscape:window-height="1009"
     inkscape:window-x="1912"
     inkscape:window-y="-8"
     inkscape:window-maximized="1"
     inkscape:current-layer="svg1" />
  <style
     id="style1">
    .a { fill: currentColor; fill-rule:evenodd; }
  </style>
  <path
     d="m 18.050781,3.9999931 c -2.90646,0.144162 -5.499058,1.872561 -6.75,4.5 l -3.6113278,8.7499999 -3.429687,-1 c -0.300397,-0.07855 -0.609429,-0.118041 -0.919922,-0.119141 -1.641123,-0.02129 -2.95095695,1.362506 -2.83984395,3 v 2 c 0.0055,2.021363 1.64855895,3.653968 3.66992195,3.648438 h 0.390625 l -0.580078,1.410156 c -1.064308,2.819532 -1.649529,5.797913 -1.730469,8.810547 v 17.359375 c 0.01647,2.015158 1.654697,3.640692 3.669922,3.640625 h 4.7910148 c 2.013575,3e-5 3.647204,-1.62708 3.658204,-3.640625 V 47.999993 H 55.58008 v 4.349609 c 0.006,2.021363 1.64855,3.655891 3.66992,3.650391 h 4.7793 c 2.01747,0.0055 3.65892,-1.623172 3.66992,-3.640625 V 34.999993 c -0.0987,-2.974896 -0.6816,-5.912877 -1.72852,-8.699219 l -0.58007,-1.410156 h 0.43945 c 2.041,0.0057 3.69222,-1.660288 3.66992,-3.701172 v -2 c 0.11111,-1.637494 -1.19873,-3.02129 -2.83984,-3 -0.31049,0.0011 -0.61953,0.04254 -0.91993,0.121094 l -3.48046,1 -3.61914,-8.7597659 c -1.23009,-2.64832 -3.82407,-4.400072 -6.740239,-4.550781 z m 1.789063,2.910156 h 30.230468 c 1.725272,0.105185 3.257228,1.138477 3.999998,2.699219 l 5.46875,13.2499999 c 0.73797,1.306129 -0.33077,2.895235 -1.81836,2.701172 H 12.150391 c -1.484253,0.186214 -2.5528738,-1.391497 -1.830079,-2.701172 l 5.46875,-13.2499999 c 0.74953,-1.57736 2.306476,-2.614019 4.050782,-2.699219 z M 10.679687,33.199212 H 21.070312 C 21.86264,33.220762 22.4949,33.867545 22.5,34.660149 v 5 c -0.01087,0.805681 -0.664967,1.453585 -1.470703,1.458985 h -10.34961 c -0.8079678,1.9e-5 -1.4632498,-0.651035 -1.4687498,-1.458985 v -5 c -1.8e-5,-0.810256 0.658513,-1.466437 1.4687498,-1.460937 z m 38.09961,0 H 59.16992 c 0.81024,-0.0055 1.47072,0.650681 1.47071,1.460937 v 5 c -0.005,0.80795 -0.66274,1.459004 -1.47071,1.458985 H 48.779297 c -0.804066,-0.0055 -1.453485,-0.654919 -1.458985,-1.458985 v -5 c 0,-0.806335 0.65265,-1.460937 1.458985,-1.460937 z"
     id="path6" />
</svg>
