<?xml version="1.0" encoding="UTF-8"?>
<svg xmlns="http://www.w3.org/2000/svg" xmlns:xlink="http://www.w3.org/1999/xlink" width="3000" height="3000" viewBox="0 0 3000 3000">
<path fill-rule="nonzero" fill="rgb(19.604492%, 33.300781%, 45.092773%)" fill-opacity="1" d="M 2837.339844 767.878906 C 2837.339844 905.578125 2789.28125 1031.96875 2709.03125 1131.121094 C 2696.128906 1147.019531 2682.390625 1162.320312 2667.960938 1176.78125 C 2651.699219 1193.039062 2634.359375 1208.460938 2616.269531 1222.679688 C 2613.03125 1225.199219 2609.878906 1227.75 2606.640625 1230.03125 C 2527.589844 1289.671875 2432.789062 1329.421875 2329.53125 1341.839844 C 2306.398438 1344.71875 2282.910156 1346.191406 2259.058594 1346.191406 L 740.96875 1346.191406 C 562.171875 1346.191406 402.300781 1264.980469 296.28125 1137.511719 C 280.621094 1118.730469 266.039062 1098.960938 252.898438 1078.109375 C 195.660156 988.589844 162.660156 882.089844 162.660156 767.878906 C 162.660156 448.5 421.558594 189.570312 740.96875 189.570312 L 2259.03125 189.570312 C 2495.28125 189.570312 2698.410156 331.261719 2788.171875 534.269531 C 2819.730469 605.699219 2837.339844 684.75 2837.339844 767.878906 "/>
<path fill-rule="nonzero" fill="rgb(31.809998%, 49.388123%, 65.039062%)" fill-opacity="1" d="M 574.46875 389.671875 L 574.46875 502.800781 L 296.28125 502.800781 L 296.28125 1137.480469 C 402.300781 1264.949219 562.171875 1346.160156 740.96875 1346.160156 L 851.578125 1346.160156 L 851.578125 389.671875 Z M 1182.898438 569.070312 L 1182.898438 617.25 L 1026.269531 617.25 L 1026.269531 1346.160156 L 1460.011719 1346.160156 L 1460.011719 569.070312 Z M 1851.570312 569.070312 L 1851.570312 421.46875 L 1574.460938 421.46875 L 1574.460938 1222.679688 L 1841.070312 1222.679688 L 1841.070312 1346.160156 L 2118.179688 1346.160156 L 2118.179688 569.070312 Z M 2431.921875 421.5 L 2431.921875 713.671875 L 2329.5 713.671875 L 2329.5 1341.839844 C 2432.761719 1329.421875 2527.558594 1289.671875 2606.609375 1230.03125 L 2606.609375 1222.679688 L 2616.238281 1222.679688 C 2634.300781 1208.460938 2651.671875 1193.039062 2667.929688 1176.78125 C 2682.390625 1162.320312 2696.128906 1147.019531 2709 1131.121094 L 2709 421.5 L 2431.921875 421.5 "/>
<path fill-rule="nonzero" fill="rgb(9.790039%, 16.50238%, 25.097656%)" fill-opacity="1" d="M 2837.339844 767.878906 C 2837.339844 905.578125 2789.28125 1031.96875 2709.03125 1131.121094 C 2696.128906 1147.019531 2682.390625 1162.320312 2667.960938 1176.78125 C 2651.699219 1193.039062 2634.359375 1208.460938 2616.269531 1222.679688 C 2613.03125 1225.199219 2609.878906 1227.75 2606.640625 1230.03125 C 2527.589844 1289.671875 2432.789062 1329.421875 2329.53125 1341.839844 C 2306.398438 1344.71875 2282.910156 1346.191406 2259.058594 1346.191406 L 740.96875 1346.191406 C 562.171875 1346.191406 402.300781 1264.980469 296.28125 1137.511719 C 280.621094 1118.730469 266.039062 1098.960938 252.898438 1078.109375 L 255.179688 1078.109375 L 255.179688 993.78125 L 221.578125 993.78125 L 221.578125 921.480469 L 255.179688 921.480469 L 255.179688 892.441406 L 221.578125 892.441406 L 221.578125 820.140625 L 255.179688 820.140625 L 255.179688 790.980469 L 221.578125 790.980469 L 221.578125 718.679688 L 574.46875 718.679688 L 574.46875 921.449219 L 640.738281 921.449219 L 640.738281 570.390625 L 619.171875 570.390625 L 619.171875 498.089844 L 1016.761719 498.089844 L 1016.761719 570.390625 L 996.148438 570.390625 L 996.148438 851.21875 L 1085.550781 851.21875 L 1085.550781 783.988281 L 1338.570312 783.988281 L 1338.570312 856.289062 L 1338.449219 856.289062 C 1338.449219 856.53125 1338.570312 856.648438 1338.570312 857.011719 L 1338.570312 1112.308594 L 1401.328125 1112.308594 L 1401.328125 545.699219 L 1714.589844 545.699219 L 1714.589844 637.378906 L 1895.671875 637.378906 C 1898.789062 637.378906 1901.339844 639.898438 1901.339844 643.171875 L 1901.339844 921.480469 L 1967.609375 921.480469 L 1976.640625 451.109375 C 1976.640625 439.589844 2028.808594 415.199219 2028.808594 415.199219 L 2028.808594 389.671875 L 2342.070312 389.671875 L 2342.070312 415.199219 L 2383.648438 415.199219 C 2386.769531 415.199219 2389.320312 417.71875 2389.320312 420.988281 L 2389.320312 1032.058594 L 2468.101562 1032.058594 L 2468.101562 540.03125 C 2468.101562 536.910156 2470.621094 534.238281 2473.890625 534.238281 L 2788.230469 534.238281 C 2819.730469 605.699219 2837.339844 684.75 2837.339844 767.878906 "/>
<path fill-rule="nonzero" fill="rgb(19.604492%, 33.300781%, 45.092773%)" fill-opacity="1" d="M 1806.328125 805.46875 L 1752.121094 805.46875 L 1752.121094 751.261719 L 1806.328125 751.261719 Z M 1308.570312 859.679688 L 1254.359375 859.679688 L 1254.359375 805.46875 L 1308.570312 805.46875 Z M 984.421875 623.28125 L 930.210938 623.28125 L 930.210938 569.070312 L 984.421875 569.070312 Z M 914.820312 623.28125 L 860.609375 623.28125 L 860.609375 569.070312 L 914.820312 569.070312 Z M 710.128906 727.171875 L 655.921875 727.171875 L 655.921875 672.960938 L 710.128906 672.960938 Z M 557.460938 787.410156 L 503.25 787.410156 L 503.25 733.199219 L 557.460938 733.199219 Z M 334.558594 880.769531 L 280.351562 880.769531 L 280.351562 826.558594 L 334.558594 826.558594 Z M 400.828125 880.769531 L 346.621094 880.769531 L 346.621094 826.558594 L 400.828125 826.558594 Z M 485.160156 950.039062 L 430.949219 950.039062 L 430.949219 895.828125 L 485.160156 895.828125 Z M 1685.070312 623.25 L 1630.859375 623.25 L 1630.859375 569.039062 L 1685.070312 569.039062 Z M 1487.101562 722.730469 L 1432.890625 722.730469 L 1432.890625 668.519531 L 1487.101562 668.519531 Z M 1487.101562 794.96875 L 1432.890625 794.96875 L 1432.890625 740.761719 L 1487.101562 740.761719 L 1487.101562 794.96875 "/>
<path fill-rule="nonzero" fill="rgb(94.921875%, 94.921875%, 94.921875%)" fill-opacity="1" d="M 1006.140625 236.339844 L 1020.75 238.53125 L 1006.140625 240.71875 C 999.988281 241.648438 995.160156 246.480469 994.230469 252.628906 L 992.039062 267.238281 L 989.851562 252.628906 C 988.921875 246.480469 984.089844 241.648438 977.941406 240.71875 L 963.328125 238.53125 L 977.941406 236.339844 C 984.089844 235.410156 988.921875 230.578125 989.851562 224.429688 L 992.039062 209.820312 L 994.230469 224.429688 C 995.160156 230.578125 999.988281 235.410156 1006.140625 236.339844 Z M 1099.289062 497.550781 C 1093.140625 496.621094 1088.308594 491.789062 1087.378906 485.640625 L 1085.191406 471.03125 L 1083 485.640625 C 1082.070312 491.789062 1077.238281 496.621094 1071.089844 497.550781 L 1056.480469 499.738281 L 1071.089844 501.929688 C 1077.238281 502.859375 1082.070312 507.691406 1083 513.839844 L 1085.191406 528.449219 L 1087.378906 513.839844 C 1088.308594 507.691406 1093.140625 502.859375 1099.289062 501.929688 L 1113.898438 499.738281 Z M 1462.140625 375.628906 L 1459.949219 361.019531 L 1457.761719 375.628906 C 1456.828125 381.78125 1452 386.609375 1445.851562 387.539062 L 1431.238281 389.730469 L 1445.851562 391.921875 C 1452 392.851562 1456.828125 397.679688 1457.761719 403.828125 L 1459.949219 418.441406 L 1462.140625 403.828125 C 1463.070312 397.679688 1467.898438 392.851562 1474.050781 391.921875 L 1488.660156 389.730469 L 1474.050781 387.539062 C 1467.898438 386.609375 1463.070312 381.78125 1462.140625 375.628906 Z M 2295.75 298.648438 C 2036.640625 298.648438 1826.578125 508.710938 1826.578125 767.820312 C 1826.578125 1026.929688 2036.640625 1236.988281 2295.75 1236.988281 C 2554.859375 1236.988281 2764.921875 1026.929688 2764.921875 767.820312 C 2764.921875 508.710938 2554.859375 298.648438 2295.75 298.648438 Z M 1724.550781 271.289062 C 1725.480469 265.140625 1730.308594 260.308594 1736.460938 259.378906 L 1751.070312 257.191406 L 1736.460938 255 C 1730.308594 254.070312 1725.480469 249.238281 1724.550781 243.089844 L 1722.359375 228.480469 L 1720.171875 243.089844 C 1719.238281 249.238281 1714.410156 254.070312 1708.261719 255 L 1693.648438 257.191406 L 1708.261719 259.378906 C 1714.410156 260.308594 1719.238281 265.140625 1720.171875 271.289062 L 1722.359375 285.898438 Z M 1199.070312 350.28125 L 1196.878906 335.671875 L 1194.691406 350.28125 C 1193.761719 356.429688 1188.929688 361.261719 1182.78125 362.191406 L 1168.171875 364.378906 L 1182.78125 366.570312 C 1188.929688 367.5 1193.761719 372.328125 1194.691406 378.480469 L 1196.878906 393.089844 L 1199.070312 378.480469 C 1200 372.328125 1204.828125 367.5 1210.980469 366.570312 L 1225.589844 364.378906 L 1210.980469 362.191406 C 1204.800781 361.261719 1199.96875 356.429688 1199.070312 350.28125 Z M 1917.570312 403.828125 L 1919.761719 418.441406 L 1921.949219 403.828125 C 1922.878906 397.679688 1927.710938 392.851562 1933.859375 391.921875 L 1948.46875 389.730469 L 1933.859375 387.539062 C 1927.710938 386.609375 1922.878906 381.78125 1921.949219 375.628906 L 1919.761719 361.019531 L 1917.570312 375.628906 C 1916.640625 381.78125 1911.808594 386.609375 1905.660156 387.539062 L 1891.050781 389.730469 L 1905.660156 391.921875 C 1911.808594 392.851562 1916.640625 397.679688 1917.570312 403.828125 Z M 494.519531 339 L 508.5 336.898438 L 494.519531 334.800781 C 488.640625 333.929688 484.019531 329.308594 483.121094 323.398438 L 481.019531 309.421875 L 478.921875 323.398438 C 478.050781 329.28125 473.429688 333.898438 467.519531 334.800781 L 453.539062 336.898438 L 467.519531 339 C 473.398438 339.871094 478.019531 344.488281 478.921875 350.398438 L 481.019531 364.378906 L 483.121094 350.398438 C 484.019531 344.488281 488.640625 339.871094 494.519531 339 "/>
<path fill-rule="nonzero" fill="rgb(89.0625%, 87.109375%, 87.109375%)" fill-opacity="1" d="M 2005.109375 507.421875 C 2005.109375 473.398438 2032.679688 445.828125 2066.699219 445.828125 C 2100.71875 445.828125 2128.289062 473.398438 2128.289062 507.421875 C 2128.289062 541.441406 2100.71875 569.011719 2066.699219 569.011719 C 2032.679688 569.011719 2005.109375 541.441406 2005.109375 507.421875 Z M 2009.128906 857.25 C 2058.480469 857.25 2098.5 817.230469 2098.5 767.878906 C 2098.5 718.53125 2058.480469 678.511719 2009.128906 678.511719 C 1959.78125 678.511719 1919.761719 718.53125 1919.761719 767.878906 C 1919.761719 817.230469 1959.75 857.25 2009.128906 857.25 Z M 2499.121094 837.089844 C 2537.371094 837.089844 2568.359375 806.101562 2568.359375 767.851562 C 2568.359375 729.601562 2537.371094 698.609375 2499.121094 698.609375 C 2460.871094 698.609375 2429.878906 729.601562 2429.878906 767.851562 C 2429.878906 806.101562 2460.898438 837.089844 2499.121094 837.089844 "/>
<path fill-rule="nonzero" fill="rgb(60.742188%, 82.03125%, 94.921875%)" fill-opacity="1" d="M 2837.339844 2232.121094 C 2837.339844 2369.820312 2789.28125 2496.210938 2709.03125 2595.359375 C 2696.128906 2611.261719 2682.390625 2626.558594 2667.960938 2641.019531 C 2651.699219 2657.28125 2634.359375 2672.699219 2616.269531 2686.921875 C 2613.03125 2689.441406 2609.878906 2691.988281 2606.640625 2694.269531 C 2527.589844 2753.910156 2432.789062 2793.660156 2329.53125 2806.078125 C 2306.398438 2808.960938 2282.910156 2810.429688 2259.058594 2810.429688 L 740.96875 2810.429688 C 562.171875 2810.429688 402.300781 2729.21875 296.28125 2601.75 C 280.621094 2582.941406 266.039062 2563.199219 252.898438 2542.351562 C 195.660156 2452.828125 162.660156 2346.328125 162.660156 2232.121094 C 162.660156 1912.738281 421.558594 1653.808594 740.96875 1653.808594 L 2259.03125 1653.808594 C 2495.28125 1653.808594 2698.410156 1795.5 2788.171875 1998.511719 C 2819.730469 2069.96875 2837.339844 2148.988281 2837.339844 2232.121094 "/>
<path fill-rule="nonzero" fill="rgb(31.809998%, 49.388123%, 65.039062%)" fill-opacity="1" d="M 567.871094 1853.941406 L 567.871094 1967.070312 L 296.28125 1967.070312 L 296.28125 2601.75 C 399.78125 2729.21875 555.871094 2810.429688 730.441406 2810.429688 L 838.410156 2810.429688 L 838.410156 1853.941406 Z M 1161.871094 2033.339844 L 1161.871094 2081.519531 L 1008.960938 2081.519531 L 1008.960938 2810.429688 L 1432.410156 2810.429688 L 1432.410156 2033.339844 Z M 1814.671875 2033.339844 L 1814.671875 1885.738281 L 1544.128906 1885.738281 L 1544.128906 2686.949219 L 1804.441406 2686.949219 L 1804.441406 2810.429688 L 2074.980469 2810.429688 L 2074.980469 2033.339844 Z M 2381.25 1885.738281 L 2381.25 2177.910156 L 2281.261719 2177.910156 L 2281.261719 2806.078125 C 2382.058594 2793.660156 2474.640625 2753.910156 2551.800781 2694.269531 L 2551.800781 2686.921875 L 2561.21875 2686.921875 C 2578.859375 2672.699219 2595.808594 2657.28125 2611.679688 2641.019531 C 2625.78125 2626.558594 2639.191406 2611.261719 2651.789062 2595.359375 L 2651.789062 1885.738281 L 2381.25 1885.738281 "/>
<path fill-rule="nonzero" fill="rgb(19.604492%, 33.300781%, 45.092773%)" fill-opacity="1" d="M 2837.339844 2232.121094 C 2837.339844 2369.820312 2789.28125 2496.210938 2709.03125 2595.359375 C 2696.128906 2611.261719 2682.390625 2626.558594 2667.960938 2641.019531 C 2651.699219 2657.28125 2634.359375 2672.699219 2616.269531 2686.921875 C 2613.03125 2689.441406 2609.878906 2691.988281 2606.640625 2694.269531 C 2527.589844 2753.910156 2432.789062 2793.660156 2329.53125 2806.078125 C 2306.398438 2808.960938 2282.910156 2810.429688 2259.058594 2810.429688 L 740.96875 2810.429688 C 562.171875 2810.429688 402.300781 2729.21875 296.28125 2601.75 C 280.621094 2582.941406 266.039062 2563.199219 252.898438 2542.351562 L 255.179688 2542.351562 L 255.179688 2458.019531 L 221.578125 2458.019531 L 221.578125 2385.71875 L 255.179688 2385.71875 L 255.179688 2356.679688 L 221.578125 2356.679688 L 221.578125 2284.378906 L 255.179688 2284.378906 L 255.179688 2255.21875 L 221.578125 2255.21875 L 221.578125 2182.921875 L 574.46875 2182.921875 L 574.46875 2385.691406 L 640.738281 2385.691406 L 640.738281 2034.660156 L 619.171875 2034.660156 L 619.171875 1962.359375 L 1016.761719 1962.359375 L 1016.761719 2034.660156 L 996.148438 2034.660156 L 996.148438 2315.488281 L 1085.550781 2315.488281 L 1085.550781 2248.261719 L 1338.570312 2248.261719 L 1338.570312 2320.558594 L 1338.449219 2320.558594 C 1338.449219 2320.800781 1338.570312 2320.921875 1338.570312 2321.28125 L 1338.570312 2576.578125 L 1401.328125 2576.578125 L 1401.328125 2009.96875 L 1714.589844 2009.96875 L 1714.589844 2101.648438 L 1895.671875 2101.648438 C 1898.789062 2101.648438 1901.339844 2104.171875 1901.339844 2107.441406 L 1901.339844 2385.75 L 1967.609375 2385.75 C 1967.609375 2385.75 1976.070312 1915.621094 1979.429688 1915.621094 L 2028.839844 1879.46875 L 2028.839844 1853.941406 L 2342.101562 1853.941406 L 2342.101562 1879.46875 L 2383.679688 1879.46875 C 2386.800781 1879.46875 2389.351562 1881.988281 2389.351562 1885.261719 L 2389.351562 2496.328125 L 2468.128906 2496.328125 L 2468.128906 2004.300781 C 2468.128906 2001.179688 2470.648438 1998.511719 2473.921875 1998.511719 L 2788.261719 1998.511719 C 2819.730469 2069.96875 2837.339844 2148.988281 2837.339844 2232.121094 "/>
<path fill-rule="nonzero" fill="rgb(94.921875%, 81.639099%, 41.992188%)" fill-opacity="1" d="M 698.910156 1773.511719 C 439.800781 1773.511719 229.738281 1983.570312 229.738281 2242.679688 C 229.738281 2501.789062 439.800781 2711.851562 698.910156 2711.851562 C 958.019531 2711.851562 1168.078125 2501.789062 1168.078125 2242.679688 C 1168.078125 1983.570312 958.050781 1773.511719 698.910156 1773.511719 "/>
<path fill-rule="nonzero" fill="rgb(31.809998%, 49.388123%, 65.039062%)" fill-opacity="1" d="M 2068.441406 2033.339844 L 2014.199219 2033.339844 L 2014.199219 1979.128906 L 2068.410156 1979.128906 L 2068.410156 2033.339844 Z M 2068.441406 2114.671875 L 2014.199219 2114.671875 L 2014.199219 2060.460938 L 2068.410156 2060.460938 L 2068.410156 2114.671875 Z M 2373 2189.96875 L 2318.789062 2189.96875 L 2318.789062 2135.761719 L 2373 2135.761719 Z M 2546.371094 2087.550781 L 2492.160156 2087.550781 L 2492.160156 2033.339844 L 2546.371094 2033.339844 Z M 2809.378906 2217.058594 L 2755.171875 2217.058594 L 2755.171875 2162.851562 L 2809.378906 2162.851562 Z M 2736.121094 2217.058594 L 2681.910156 2217.058594 L 2681.910156 2162.851562 L 2736.121094 2162.851562 Z M 2651.789062 2296.890625 L 2597.578125 2296.890625 L 2597.578125 2242.679688 L 2651.789062 2242.679688 Z M 2300.339844 2033.339844 L 2246.128906 2033.339844 L 2246.128906 1979.128906 L 2300.339844 1979.128906 Z M 1873.441406 2189.96875 L 1819.199219 2189.96875 L 1819.199219 2135.761719 L 1873.410156 2135.761719 L 1873.410156 2189.96875 Z M 1795.109375 2269.769531 L 1740.898438 2269.769531 L 1740.898438 2215.558594 L 1795.109375 2215.558594 Z M 1297.351562 2345.910156 L 1243.140625 2345.910156 L 1243.140625 2291.699219 L 1297.351562 2291.699219 Z M 1673.851562 2087.550781 L 1619.640625 2087.550781 L 1619.640625 2033.339844 L 1673.851562 2033.339844 L 1673.851562 2087.550781 "/>
<path fill-rule="nonzero" fill="rgb(94.921875%, 94.921875%, 94.921875%)" fill-opacity="1" d="M 1101.210938 1821.148438 C 1100.160156 1791.328125 1137.660156 1767.929688 1164 1781.96875 C 1162.5 1744.46875 1197.390625 1709.578125 1234.921875 1711.078125 C 1272.421875 1712.578125 1304.429688 1750.109375 1299.988281 1787.371094 C 1303.859375 1765.050781 1331.339844 1750.410156 1352.039062 1759.648438 C 1372.710938 1768.890625 1380.148438 1799.128906 1366.109375 1816.921875 C 1380.570312 1803.511719 1403.878906 1800.78125 1421.070312 1810.441406 C 1438.261719 1820.101562 1448.011719 1841.429688 1444.050781 1860.75 C 1445.761719 1867.648438 1041.871094 1867.648438 1041.871094 1867.648438 C 1037.039062 1838.671875 1072.050781 1811.101562 1101.210938 1821.148438 Z M 2150.371094 1754.429688 C 2151.148438 1732.050781 2123.011719 1714.46875 2103.238281 1725.03125 C 2104.351562 1696.859375 2078.160156 1670.699219 2050.019531 1671.808594 C 2021.851562 1672.921875 1997.820312 1701.121094 2001.179688 1729.078125 C 1998.269531 1712.308594 1977.628906 1701.328125 1962.121094 1708.261719 C 1946.578125 1715.191406 1941 1737.898438 1951.558594 1751.25 C 1950.78125 1750.53125 1949.910156 1749.960938 1949.070312 1749.300781 C 1941.960938 1728.328125 1921.019531 1711.828125 1898.578125 1712.699219 C 1870.410156 1713.808594 1846.378906 1742.011719 1849.738281 1769.96875 C 1846.828125 1753.199219 1826.191406 1742.21875 1810.679688 1749.148438 C 1795.140625 1756.078125 1789.558594 1778.789062 1800.121094 1792.140625 C 1789.261719 1782.089844 1771.769531 1780.019531 1758.871094 1787.28125 C 1745.96875 1794.539062 1738.648438 1810.558594 1741.621094 1825.050781 C 1740.328125 1830.238281 2043.570312 1830.238281 2043.570312 1830.238281 C 2047.171875 1808.460938 2020.890625 1787.761719 1998.988281 1795.320312 C 1999.078125 1792.859375 1998.691406 1790.488281 1998.121094 1788.179688 C 2085.300781 1789.320312 2195.039062 1789.320312 2195.039062 1789.320312 C 2198.550781 1767.601562 2172.269531 1746.898438 2150.371094 1754.429688 "/>
</svg>
